<svg width="1205" height="106" viewBox="0 0 1205 106" fill="none" xmlns="http://www.w3.org/2000/svg">
<g id="WEB DEVELOPER">
<mask id="path-1-outside-1_2_18" maskUnits="userSpaceOnUse" x="-6" y="-5" width="1220" height="116" fill="black">
<rect fill="white" x="-6" y="-5" width="1220" height="116"/>
<path d="M29.353 104L0.617188 2.18182H20.4538L38.799 77.0043H39.7436L59.3317 2.18182H77.3786L97.0163 77.054H97.9112L116.256 2.18182H136.093L107.357 104H89.1612L68.7777 32.5582H67.9822L47.549 104H29.353ZM148.882 104V2.18182H215.104V17.6435H167.327V45.2855H211.674V60.7472H167.327V88.5384H215.502V104H148.882ZM233.922 104V2.18182H272.899C280.257 2.18182 286.372 3.34185 291.244 5.66193C296.149 7.94886 299.812 11.081 302.231 15.0582C304.684 19.0355 305.91 23.5431 305.91 28.581C305.91 32.724 305.115 36.2704 303.524 39.2202C301.933 42.1368 299.795 44.5066 297.11 46.3295C294.426 48.1525 291.426 49.4616 288.112 50.2571V51.2514C291.725 51.4503 295.188 52.5606 298.502 54.5824C301.85 56.571 304.584 59.3883 306.706 63.0341C308.827 66.6799 309.887 71.0881 309.887 76.2585C309.887 81.5284 308.611 86.268 306.059 90.4773C303.507 94.6534 299.663 97.9512 294.525 100.371C289.388 102.79 282.925 104 275.136 104H233.922ZM252.366 88.5881H272.203C278.898 88.5881 283.72 87.312 286.67 84.7599C289.653 82.1747 291.145 78.8603 291.145 74.8168C291.145 71.8007 290.399 69.0829 288.907 66.6634C287.416 64.2107 285.295 62.2884 282.544 60.8963C279.793 59.4711 276.511 58.7585 272.7 58.7585H252.366V88.5881ZM252.366 45.4844H270.612C273.794 45.4844 276.661 44.9044 279.213 43.7443C281.765 42.5511 283.77 40.8774 285.228 38.723C286.72 36.5355 287.466 33.9503 287.466 30.9673C287.466 27.0232 286.074 23.7751 283.289 21.223C280.538 18.6709 276.445 17.3949 271.01 17.3949H252.366V45.4844ZM429.889 104H395.386V2.18182H430.585C440.694 2.18182 449.378 4.22017 456.636 8.29688C463.928 12.3404 469.529 18.1572 473.44 25.7472C477.351 33.3371 479.307 42.4186 479.307 52.9915C479.307 63.5975 477.335 72.7121 473.391 80.3352C469.48 87.9583 463.829 93.8082 456.438 97.8849C449.08 101.962 440.23 104 429.889 104ZM413.831 88.0412H428.994C436.087 88.0412 442.003 86.7486 446.743 84.1634C451.482 81.545 455.045 77.6506 457.432 72.4801C459.818 67.2765 461.011 60.7803 461.011 52.9915C461.011 45.2026 459.818 38.7396 457.432 33.6023C455.045 28.4318 451.516 24.5706 446.842 22.0185C442.202 19.4332 436.435 18.1406 429.541 18.1406H413.831V88.0412ZM496.832 104V2.18182H563.053V17.6435H515.276V45.2855H559.623V60.7472H515.276V88.5384H563.451V104H496.832ZM595.493 2.18182L621.991 82.3239H623.036L649.484 2.18182H669.768L633.874 104H611.104L575.259 2.18182H595.493ZM683.179 104V2.18182H749.401V17.6435H701.624V45.2855H745.971V60.7472H701.624V88.5384H749.799V104H683.179ZM768.218 104V2.18182H786.663V88.5384H831.507V104H768.218ZM934.531 53.0909C934.531 64.0616 932.476 73.4579 928.366 81.2798C924.289 89.0687 918.721 95.0346 911.661 99.1776C904.635 103.321 896.664 105.392 887.748 105.392C878.832 105.392 870.844 103.321 863.785 99.1776C856.758 95.0014 851.19 89.0189 847.08 81.2301C843.004 73.4081 840.965 64.0284 840.965 53.0909C840.965 42.1203 843.004 32.7405 847.08 24.9517C851.19 17.1297 856.758 11.1473 863.785 7.00426C870.844 2.86126 878.832 0.789769 887.748 0.789769C896.664 0.789769 904.635 2.86126 911.661 7.00426C918.721 11.1473 924.289 17.1297 928.366 24.9517C932.476 32.7405 934.531 42.1203 934.531 53.0909ZM915.987 53.0909C915.987 45.3684 914.777 38.8556 912.357 33.5526C909.971 28.2164 906.656 24.1894 902.414 21.4716C898.172 18.7206 893.283 17.3452 887.748 17.3452C882.213 17.3452 877.324 18.7206 873.082 21.4716C868.839 24.1894 865.508 28.2164 863.089 33.5526C860.702 38.8556 859.509 45.3684 859.509 53.0909C859.509 60.8134 860.702 67.3428 863.089 72.679C865.508 77.982 868.839 82.009 873.082 84.7599C877.324 87.4777 882.213 88.8366 887.748 88.8366C893.283 88.8366 898.172 87.4777 902.414 84.7599C906.656 82.009 909.971 77.982 912.357 72.679C914.777 67.3428 915.987 60.8134 915.987 53.0909ZM951.968 104V2.18182H990.15C997.972 2.18182 1004.53 3.64015 1009.84 6.55682C1015.17 9.47348 1019.2 13.4839 1021.92 18.5881C1024.67 23.6591 1026.05 29.4261 1026.05 35.8892C1026.05 42.4186 1024.67 48.2187 1021.92 53.2898C1019.17 58.3608 1015.11 62.3546 1009.74 65.2713C1004.37 68.1548 997.757 69.5966 989.902 69.5966H964.596V54.4332H987.416C991.99 54.4332 995.735 53.6378 998.652 52.0469C1001.57 50.456 1003.72 48.2685 1005.11 45.4844C1006.54 42.7003 1007.25 39.5019 1007.25 35.8892C1007.25 32.2765 1006.54 29.0947 1005.11 26.3438C1003.72 23.5928 1001.55 21.455 998.602 19.9304C995.685 18.3726 991.923 17.5938 987.316 17.5938H970.413V104H951.968ZM1042.07 104V2.18182H1108.29V17.6435H1060.51V45.2855H1104.86V60.7472H1060.51V88.5384H1108.69V104H1042.07ZM1127.11 104V2.18182H1165.29C1173.11 2.18182 1179.67 3.54072 1184.97 6.25852C1190.31 8.97632 1194.34 12.7879 1197.06 17.6932C1199.81 22.5653 1201.18 28.2495 1201.18 34.7457C1201.18 41.2751 1199.79 46.9427 1197.01 51.7486C1194.25 56.5213 1190.19 60.2169 1184.83 62.8352C1179.46 65.4205 1172.86 66.7131 1165.04 66.7131H1137.84V51.4006H1162.55C1167.13 51.4006 1170.87 50.7708 1173.79 49.5114C1176.71 48.2187 1178.86 46.3461 1180.25 43.8935C1181.68 41.4077 1182.39 38.3584 1182.39 34.7457C1182.39 31.133 1181.68 28.0507 1180.25 25.4986C1178.83 22.9134 1176.66 20.9579 1173.74 19.6321C1170.82 18.2732 1167.06 17.5938 1162.45 17.5938H1145.55V104H1127.11ZM1179.7 57.8636L1204.91 104H1184.33L1159.57 57.8636H1179.7Z"/>
</mask>
<path d="M29.353 104L24.541 105.358L25.5688 109H29.353V104ZM0.617188 2.18182V-2.81818H-5.98926L-4.19484 3.5399L0.617188 2.18182ZM20.4538 2.18182L25.31 0.991167L24.376 -2.81818H20.4538V2.18182ZM38.799 77.0043L33.9428 78.1949L34.8768 82.0043H38.799V77.0043ZM39.7436 77.0043V82.0043H43.6031L44.5806 78.2706L39.7436 77.0043ZM59.3317 2.18182V-2.81818H55.4721L54.4947 0.915519L59.3317 2.18182ZM77.3786 2.18182L82.215 0.913301L81.2363 -2.81818H77.3786V2.18182ZM97.0163 77.054L92.1799 78.3225L93.1586 82.054H97.0163V77.054ZM97.9112 77.054V82.054H101.834L102.768 78.2439L97.9112 77.054ZM116.256 2.18182V-2.81818H112.334L111.4 0.991913L116.256 2.18182ZM136.093 2.18182L140.905 3.5399L142.699 -2.81818H136.093V2.18182ZM107.357 104V109H111.141L112.169 105.358L107.357 104ZM89.1612 104L84.3531 105.372L85.3883 109H89.1612V104ZM68.7777 32.5582L73.5858 31.1864L72.5507 27.5582H68.7777V32.5582ZM67.9822 32.5582V27.5582H64.2118L63.175 31.1833L67.9822 32.5582ZM47.549 104V109H51.3194L52.3562 105.375L47.549 104ZM34.165 102.642L5.42922 0.823733L-4.19484 3.5399L24.541 105.358L34.165 102.642ZM0.617188 7.18182H20.4538V-2.81818H0.617188V7.18182ZM15.5977 3.37246L33.9428 78.1949L43.6552 75.8136L25.31 0.991167L15.5977 3.37246ZM38.799 82.0043H39.7436V72.0043H38.799V82.0043ZM44.5806 78.2706L64.1687 3.44811L54.4947 0.915519L34.9066 75.738L44.5806 78.2706ZM59.3317 7.18182H77.3786V-2.81818H59.3317V7.18182ZM72.5421 3.45033L92.1799 78.3225L101.853 75.7855L82.215 0.913301L72.5421 3.45033ZM97.0163 82.054H97.9112V72.054H97.0163V82.054ZM102.768 78.2439L121.113 3.37172L111.4 0.991913L93.0549 75.8641L102.768 78.2439ZM116.256 7.18182H136.093V-2.81818H116.256V7.18182ZM131.281 0.823733L102.545 102.642L112.169 105.358L140.905 3.5399L131.281 0.823733ZM107.357 99H89.1612V109H107.357V99ZM93.9694 102.628L73.5858 31.1864L63.9696 33.9301L84.3531 105.372L93.9694 102.628ZM68.7777 27.5582H67.9822V37.5582H68.7777V27.5582ZM63.175 31.1833L42.7418 102.625L52.3562 105.375L72.7895 33.9332L63.175 31.1833ZM47.549 99H29.353V109H47.549V99ZM148.882 104H143.882V109H148.882V104ZM148.882 2.18182V-2.81818H143.882V2.18182H148.882ZM215.104 2.18182H220.104V-2.81818H215.104V2.18182ZM215.104 17.6435V22.6435H220.104V17.6435H215.104ZM167.327 17.6435V12.6435H162.327V17.6435H167.327ZM167.327 45.2855H162.327V50.2855H167.327V45.2855ZM211.674 45.2855H216.674V40.2855H211.674V45.2855ZM211.674 60.7472V65.7472H216.674V60.7472H211.674ZM167.327 60.7472V55.7472H162.327V60.7472H167.327ZM167.327 88.5384H162.327V93.5384H167.327V88.5384ZM215.502 88.5384H220.502V83.5384H215.502V88.5384ZM215.502 104V109H220.502V104H215.502ZM153.882 104V2.18182H143.882V104H153.882ZM148.882 7.18182H215.104V-2.81818H148.882V7.18182ZM210.104 2.18182V17.6435H220.104V2.18182H210.104ZM215.104 12.6435H167.327V22.6435H215.104V12.6435ZM162.327 17.6435V45.2855H172.327V17.6435H162.327ZM167.327 50.2855H211.674V40.2855H167.327V50.2855ZM206.674 45.2855V60.7472H216.674V45.2855H206.674ZM211.674 55.7472H167.327V65.7472H211.674V55.7472ZM162.327 60.7472V88.5384H172.327V60.7472H162.327ZM167.327 93.5384H215.502V83.5384H167.327V93.5384ZM210.502 88.5384V104H220.502V88.5384H210.502ZM215.502 99H148.882V109H215.502V99ZM233.922 104H228.922V109H233.922V104ZM233.922 2.18182V-2.81818H228.922V2.18182H233.922ZM291.244 5.66193L289.094 10.1762L289.113 10.185L289.131 10.1936L291.244 5.66193ZM302.231 15.0582L297.96 17.6568L297.967 17.6698L297.975 17.6827L302.231 15.0582ZM303.524 39.2202L307.913 41.6144L307.919 41.604L307.925 41.5936L303.524 39.2202ZM297.11 46.3295L294.302 42.193L294.302 42.193L297.11 46.3295ZM288.112 50.2571L286.945 45.3952L283.112 46.3151V50.2571H288.112ZM288.112 51.2514H283.112V55.9838L287.837 56.2439L288.112 51.2514ZM298.502 54.5824L295.899 58.8509L295.924 58.8661L295.949 58.8811L298.502 54.5824ZM306.706 63.0341L302.384 65.5486L302.384 65.5486L306.706 63.0341ZM306.059 90.4773L310.326 93.0845L310.33 93.077L310.335 93.0695L306.059 90.4773ZM294.525 100.371L292.395 95.8473L294.525 100.371ZM252.366 88.5881H247.366V93.5881H252.366V88.5881ZM286.67 84.7599L289.942 88.5412L289.945 88.5384L286.67 84.7599ZM288.907 66.6634L284.635 69.2613L284.643 69.2742L284.651 69.2871L288.907 66.6634ZM282.544 60.8963L280.244 65.3359L280.265 65.3469L280.286 65.3576L282.544 60.8963ZM252.366 58.7585V53.7585H247.366V58.7585H252.366ZM252.366 45.4844H247.366V50.4844H252.366V45.4844ZM279.213 43.7443L281.282 48.2961L281.306 48.2851L281.33 48.2737L279.213 43.7443ZM285.228 38.723L281.097 35.9063L281.092 35.9132L281.088 35.9202L285.228 38.723ZM283.289 21.223L279.889 24.8885L279.9 24.8987L279.911 24.9088L283.289 21.223ZM252.366 17.3949V12.3949H247.366V17.3949H252.366ZM238.922 104V2.18182H228.922V104H238.922ZM233.922 7.18182H272.899V-2.81818H233.922V7.18182ZM272.899 7.18182C279.769 7.18182 285.091 8.27013 289.094 10.1762L293.394 1.14762C287.652 -1.58642 280.745 -2.81818 272.899 -2.81818V7.18182ZM289.131 10.1936C293.291 12.1329 296.132 14.6532 297.96 17.6568L306.503 12.4596C303.491 7.50868 299.008 3.76479 293.357 1.13023L289.131 10.1936ZM297.975 17.6827C299.903 20.8093 300.91 24.3947 300.91 28.581H310.91C310.91 22.6915 309.464 17.2617 306.487 12.4338L297.975 17.6827ZM300.91 28.581C300.91 32.0883 300.238 34.779 299.123 36.8467L307.925 41.5936C309.991 37.7617 310.91 33.3596 310.91 28.581H300.91ZM299.134 36.8259C297.915 39.0616 296.312 40.8278 294.302 42.193L299.919 50.4661C303.278 48.1855 305.951 45.2121 307.913 41.6144L299.134 36.8259ZM294.302 42.193C292.141 43.6602 289.703 44.7333 286.945 45.3952L289.279 55.119C293.15 54.19 296.711 52.6447 299.919 50.4661L294.302 42.193ZM283.112 50.2571V51.2514H293.112V50.2571H283.112ZM287.837 56.2439C290.566 56.3941 293.236 57.2267 295.899 58.8509L301.106 50.3139C297.14 47.8945 292.883 46.5065 288.387 46.259L287.837 56.2439ZM295.949 58.8811C298.505 60.3993 300.654 62.5752 302.384 65.5486L311.027 60.5196C308.515 56.2013 305.195 52.7427 301.056 50.2837L295.949 58.8811ZM302.384 65.5486C303.971 68.2759 304.887 71.773 304.887 76.2585H314.887C314.887 70.4032 313.683 65.084 311.027 60.5196L302.384 65.5486ZM304.887 76.2585C304.887 80.6814 303.828 84.5128 301.784 87.885L310.335 93.0695C313.394 88.0232 314.887 82.3754 314.887 76.2585H304.887ZM301.793 87.87C299.828 91.0854 296.793 93.7758 292.395 95.8473L296.656 104.894C302.532 102.127 307.187 98.2214 310.326 93.0845L301.793 87.87ZM292.395 95.8473C288.123 97.859 282.446 99 275.136 99V109C283.403 109 290.652 107.721 296.656 104.894L292.395 95.8473ZM275.136 99H233.922V109H275.136V99ZM252.366 93.5881H272.203V83.5881H252.366V93.5881ZM272.203 93.5881C279.312 93.5881 285.626 92.2747 289.942 88.5412L283.399 80.9787C281.814 82.3494 278.484 83.5881 272.203 83.5881V93.5881ZM289.945 88.5384C294.054 84.9772 296.145 80.2699 296.145 74.8168H286.145C286.145 77.4508 285.252 79.3722 283.395 80.9815L289.945 88.5384ZM296.145 74.8168C296.145 70.9332 295.171 67.2968 293.164 64.0396L284.651 69.2871C285.626 70.869 286.145 72.6681 286.145 74.8168H296.145ZM293.179 64.0654C291.167 60.7566 288.32 58.2157 284.801 56.435L280.286 65.3576C282.269 66.361 283.664 67.6648 284.635 69.2613L293.179 64.0654ZM284.844 56.4567C281.237 54.588 277.131 53.7585 272.7 53.7585V63.7585C275.892 63.7585 278.349 64.3542 280.244 65.3359L284.844 56.4567ZM272.7 53.7585H252.366V63.7585H272.7V53.7585ZM247.366 58.7585V88.5881H257.366V58.7585H247.366ZM252.366 50.4844H270.612V40.4844H252.366V50.4844ZM270.612 50.4844C274.411 50.4844 277.998 49.789 281.282 48.2961L277.144 39.1925C275.324 40.0197 273.176 40.4844 270.612 40.4844V50.4844ZM281.33 48.2737C284.63 46.731 287.363 44.4894 289.369 41.5258L281.088 35.9202C280.177 37.2653 278.9 38.3713 277.095 39.2149L281.33 48.2737ZM289.359 41.5397C291.487 38.4192 292.466 34.8232 292.466 30.9673H282.466C282.466 33.0774 281.953 34.6518 281.097 35.9063L289.359 41.5397ZM292.466 30.9673C292.466 25.6918 290.536 21.0828 286.668 17.5372L279.911 24.9088C281.611 26.4674 282.466 28.3545 282.466 30.9673H292.466ZM286.69 17.5575C282.672 13.8303 277.146 12.3949 271.01 12.3949V22.3949C275.744 22.3949 278.405 23.5116 279.889 24.8885L286.69 17.5575ZM271.01 12.3949H252.366V22.3949H271.01V12.3949ZM247.366 17.3949V45.4844H257.366V17.3949H247.366ZM395.386 104H390.386V109H395.386V104ZM395.386 2.18182V-2.81818H390.386V2.18182H395.386ZM456.636 8.29688L454.188 12.6563L454.2 12.663L454.212 12.6695L456.636 8.29688ZM473.44 25.7472L468.996 28.0374L468.996 28.0374L473.44 25.7472ZM473.391 80.3352L468.95 78.0376L468.946 78.0452L468.942 78.0529L473.391 80.3352ZM456.438 97.8849L454.023 93.5068L454.014 93.5114L456.438 97.8849ZM413.831 88.0412H408.831V93.0412H413.831V88.0412ZM446.743 84.1634L449.137 88.5528L449.149 88.5464L449.161 88.5399L446.743 84.1634ZM457.432 72.4801L461.972 74.5754L461.977 74.5644L457.432 72.4801ZM457.432 33.6023L452.892 35.6976L452.897 35.7087L457.432 33.6023ZM446.842 22.0185L444.409 26.3863L444.427 26.3966L444.446 26.4068L446.842 22.0185ZM413.831 18.1406V13.1406H408.831V18.1406H413.831ZM429.889 99H395.386V109H429.889V99ZM400.386 104V2.18182H390.386V104H400.386ZM395.386 7.18182H430.585V-2.81818H395.386V7.18182ZM430.585 7.18182C440.019 7.18182 447.822 9.08086 454.188 12.6563L459.085 3.9374C450.934 -0.640526 441.369 -2.81818 430.585 -2.81818V7.18182ZM454.212 12.6695C460.617 16.2217 465.526 21.3035 468.996 28.0374L477.885 23.4569C473.533 15.0109 467.239 8.45914 459.061 3.92421L454.212 12.6695ZM468.996 28.0374C472.465 34.7701 474.307 43.0289 474.307 52.9915H484.307C484.307 41.8083 482.238 31.9041 477.885 23.4569L468.996 28.0374ZM474.307 52.9915C474.307 62.9832 472.45 71.2727 468.95 78.0376L477.831 82.6329C482.22 74.1515 484.307 64.2118 484.307 52.9915H474.307ZM468.942 78.0529C465.478 84.8047 460.528 89.9183 454.023 93.5068L458.852 102.263C467.129 97.6981 473.481 91.1119 477.839 82.6176L468.942 78.0529ZM454.014 93.5114C447.55 97.0931 439.575 99 429.889 99V109C440.885 109 450.609 106.83 458.861 102.259L454.014 93.5114ZM413.831 93.0412H428.994V83.0412H413.831V93.0412ZM428.994 93.0412C436.67 93.0412 443.469 91.6448 449.137 88.5528L444.349 79.7739C440.538 81.8524 435.504 83.0412 428.994 83.0412V93.0412ZM449.161 88.5399C454.883 85.3789 459.164 80.6596 461.972 74.5754L452.892 70.3848C450.927 74.6415 448.082 77.7111 444.325 79.7868L449.161 88.5399ZM461.977 74.5644C464.751 68.5159 466.011 61.2549 466.011 52.9915H456.011C456.011 60.3057 454.886 66.0371 452.887 70.3958L461.977 74.5644ZM466.011 52.9915C466.011 44.7318 464.752 37.4919 461.966 31.4959L452.897 35.7087C454.885 39.9873 456.011 45.6735 456.011 52.9915H466.011ZM461.972 31.507C459.169 25.4339 454.921 20.7334 449.239 17.6302L444.446 26.4068C448.11 28.4077 450.922 31.4298 452.892 35.6976L461.972 31.507ZM449.276 17.6506C443.702 14.5453 437.04 13.1406 429.541 13.1406V23.1406C435.83 23.1406 440.702 24.3212 444.409 26.3863L449.276 17.6506ZM429.541 13.1406H413.831V23.1406H429.541V13.1406ZM408.831 18.1406V88.0412H418.831V18.1406H408.831ZM496.832 104H491.832V109H496.832V104ZM496.832 2.18182V-2.81818H491.832V2.18182H496.832ZM563.053 2.18182H568.053V-2.81818H563.053V2.18182ZM563.053 17.6435V22.6435H568.053V17.6435H563.053ZM515.276 17.6435V12.6435H510.276V17.6435H515.276ZM515.276 45.2855H510.276V50.2855H515.276V45.2855ZM559.623 45.2855H564.623V40.2855H559.623V45.2855ZM559.623 60.7472V65.7472H564.623V60.7472H559.623ZM515.276 60.7472V55.7472H510.276V60.7472H515.276ZM515.276 88.5384H510.276V93.5384H515.276V88.5384ZM563.451 88.5384H568.451V83.5384H563.451V88.5384ZM563.451 104V109H568.451V104H563.451ZM501.832 104V2.18182H491.832V104H501.832ZM496.832 7.18182H563.053V-2.81818H496.832V7.18182ZM558.053 2.18182V17.6435H568.053V2.18182H558.053ZM563.053 12.6435H515.276V22.6435H563.053V12.6435ZM510.276 17.6435V45.2855H520.276V17.6435H510.276ZM515.276 50.2855H559.623V40.2855H515.276V50.2855ZM554.623 45.2855V60.7472H564.623V45.2855H554.623ZM559.623 55.7472H515.276V65.7472H559.623V55.7472ZM510.276 60.7472V88.5384H520.276V60.7472H510.276ZM515.276 93.5384H563.451V83.5384H515.276V93.5384ZM558.451 88.5384V104H568.451V88.5384H558.451ZM563.451 99H496.832V109H563.451V99ZM595.493 2.18182L600.24 0.612166L599.106 -2.81818H595.493V2.18182ZM621.991 82.3239L617.244 83.8935L618.378 87.3239H621.991V82.3239ZM623.036 82.3239V87.3239H626.651L627.784 83.8909L623.036 82.3239ZM649.484 2.18182V-2.81818H645.869L644.736 0.614822L649.484 2.18182ZM669.768 2.18182L674.484 3.84423L676.833 -2.81818H669.768V2.18182ZM633.874 104V109H637.413L638.589 105.662L633.874 104ZM611.104 104L606.387 105.66L607.563 109H611.104V104ZM575.259 2.18182V-2.81818H568.197L570.542 3.84218L575.259 2.18182ZM590.746 3.75146L617.244 83.8935L626.739 80.7542L600.24 0.612166L590.746 3.75146ZM621.991 87.3239H623.036V77.3239H621.991V87.3239ZM627.784 83.8909L654.232 3.74881L644.736 0.614822L618.287 80.7569L627.784 83.8909ZM649.484 7.18182H669.768V-2.81818H649.484V7.18182ZM665.053 0.519401L629.158 102.338L638.589 105.662L674.484 3.84423L665.053 0.519401ZM633.874 99H611.104V109H633.874V99ZM615.82 102.34L579.975 0.521449L570.542 3.84218L606.387 105.66L615.82 102.34ZM575.259 7.18182H595.493V-2.81818H575.259V7.18182ZM683.179 104H678.179V109H683.179V104ZM683.179 2.18182V-2.81818H678.179V2.18182H683.179ZM749.401 2.18182H754.401V-2.81818H749.401V2.18182ZM749.401 17.6435V22.6435H754.401V17.6435H749.401ZM701.624 17.6435V12.6435H696.624V17.6435H701.624ZM701.624 45.2855H696.624V50.2855H701.624V45.2855ZM745.971 45.2855H750.971V40.2855H745.971V45.2855ZM745.971 60.7472V65.7472H750.971V60.7472H745.971ZM701.624 60.7472V55.7472H696.624V60.7472H701.624ZM701.624 88.5384H696.624V93.5384H701.624V88.5384ZM749.799 88.5384H754.799V83.5384H749.799V88.5384ZM749.799 104V109H754.799V104H749.799ZM688.179 104V2.18182H678.179V104H688.179ZM683.179 7.18182H749.401V-2.81818H683.179V7.18182ZM744.401 2.18182V17.6435H754.401V2.18182H744.401ZM749.401 12.6435H701.624V22.6435H749.401V12.6435ZM696.624 17.6435V45.2855H706.624V17.6435H696.624ZM701.624 50.2855H745.971V40.2855H701.624V50.2855ZM740.971 45.2855V60.7472H750.971V45.2855H740.971ZM745.971 55.7472H701.624V65.7472H745.971V55.7472ZM696.624 60.7472V88.5384H706.624V60.7472H696.624ZM701.624 93.5384H749.799V83.5384H701.624V93.5384ZM744.799 88.5384V104H754.799V88.5384H744.799ZM749.799 99H683.179V109H749.799V99ZM768.218 104H763.218V109H768.218V104ZM768.218 2.18182V-2.81818H763.218V2.18182H768.218ZM786.663 2.18182H791.663V-2.81818H786.663V2.18182ZM786.663 88.5384H781.663V93.5384H786.663V88.5384ZM831.507 88.5384H836.507V83.5384H831.507V88.5384ZM831.507 104V109H836.507V104H831.507ZM773.218 104V2.18182H763.218V104H773.218ZM768.218 7.18182H786.663V-2.81818H768.218V7.18182ZM781.663 2.18182V88.5384H791.663V2.18182H781.663ZM786.663 93.5384H831.507V83.5384H786.663V93.5384ZM826.507 88.5384V104H836.507V88.5384H826.507ZM831.507 99H768.218V109H831.507V99ZM928.366 81.2798L923.94 78.9542L923.936 78.9612L928.366 81.2798ZM911.661 99.1776L909.131 94.8653L909.122 94.8705L911.661 99.1776ZM863.785 99.1776L861.23 103.476L861.242 103.483L861.254 103.49L863.785 99.1776ZM847.08 81.2301L842.646 83.541L842.652 83.5523L842.658 83.5635L847.08 81.2301ZM847.08 24.9517L842.654 22.6261L842.65 22.6331L847.08 24.9517ZM863.785 7.00426L861.254 2.69197L861.245 2.6972L863.785 7.00426ZM911.661 7.00426L909.122 11.3113L909.131 11.3165L911.661 7.00426ZM928.366 24.9517L923.932 27.2626L923.938 27.2739L923.944 27.2851L928.366 24.9517ZM912.357 33.5526L907.793 35.5938L907.801 35.6109L907.808 35.628L912.357 33.5526ZM902.414 21.4716L899.694 25.6668L899.705 25.6743L899.717 25.6818L902.414 21.4716ZM873.082 21.4716L875.779 25.6818L875.79 25.6743L875.802 25.6668L873.082 21.4716ZM863.089 33.5526L858.535 31.4878L858.532 31.4943L858.529 31.5007L863.089 33.5526ZM863.089 72.679L858.524 74.7202L858.532 74.7373L858.54 74.7544L863.089 72.679ZM873.082 84.7599L870.361 88.9552L870.373 88.9627L870.385 88.9701L873.082 84.7599ZM902.414 84.7599L905.111 88.9701L905.123 88.9627L905.134 88.9552L902.414 84.7599ZM912.357 72.679L907.803 70.6142L907.801 70.6207L907.798 70.6272L912.357 72.679ZM929.531 53.0909C929.531 63.4437 927.592 72.0024 923.94 78.9542L932.792 83.6055C937.359 74.9134 939.531 64.6794 939.531 53.0909H929.531ZM923.936 78.9612C920.26 85.9847 915.323 91.2312 909.131 94.8653L914.192 103.49C922.119 98.8379 928.318 92.1526 932.796 83.5985L923.936 78.9612ZM909.122 94.8705C902.935 98.5182 895.856 100.392 887.748 100.392V110.392C897.471 110.392 906.334 108.123 914.201 103.485L909.122 94.8705ZM887.748 100.392C879.64 100.392 872.54 98.5183 866.315 94.8653L861.254 103.49C869.149 108.123 878.024 110.392 887.748 110.392V100.392ZM866.339 94.8794C860.166 91.2102 855.217 85.9366 851.502 78.8967L842.658 83.5635C847.163 92.1012 853.351 98.7927 861.23 103.476L866.339 94.8794ZM851.514 78.9192C847.888 71.9619 845.965 63.4135 845.965 53.0909H835.965C835.965 64.6433 838.119 74.8544 842.646 83.541L851.514 78.9192ZM845.965 53.0909C845.965 42.7315 847.889 34.1879 851.51 27.2703L842.65 22.6331C838.118 31.2932 835.965 41.509 835.965 53.0909H845.965ZM851.506 27.2773C855.221 20.2073 860.165 14.9429 866.324 11.3113L861.245 2.6972C853.351 7.35162 847.159 14.0522 842.654 22.6261L851.506 27.2773ZM866.315 11.3165C872.54 7.66356 879.64 5.78977 887.748 5.78977V-4.21023C878.024 -4.21023 869.149 -1.94103 861.254 2.69198L866.315 11.3165ZM887.748 5.78977C895.856 5.78977 902.935 7.6636 909.122 11.3113L914.201 2.6972C906.334 -1.94108 897.471 -4.21023 887.748 -4.21023V5.78977ZM909.131 11.3165C915.317 14.9474 920.254 20.206 923.932 27.2626L932.8 22.6408C928.324 14.0535 922.124 7.34715 914.192 2.69198L909.131 11.3165ZM923.944 27.2851C927.592 34.1991 929.531 42.7373 929.531 53.0909H939.531C939.531 41.5033 937.359 31.2819 932.788 22.6183L923.944 27.2851ZM920.987 53.0909C920.987 44.8738 919.703 37.6069 916.906 31.4771L907.808 35.628C909.851 40.1042 910.987 45.8629 910.987 53.0909H920.987ZM916.922 31.5113C914.203 25.4316 910.299 20.5849 905.111 17.2614L899.717 25.6818C903.014 27.7939 905.739 31.0012 907.793 35.5938L916.922 31.5113ZM905.134 17.2764C900.006 13.9507 894.153 12.3452 887.748 12.3452V22.3452C892.413 22.3452 896.338 23.4906 899.694 25.6668L905.134 17.2764ZM887.748 12.3452C881.342 12.3452 875.49 13.9507 870.361 17.2764L875.802 25.6668C879.158 23.4906 883.083 22.3452 887.748 22.3452V12.3452ZM870.385 17.2614C865.204 20.5805 861.287 25.4186 858.535 31.4878L867.643 35.6173C869.73 31.0142 872.475 27.7983 875.779 25.6818L870.385 17.2614ZM858.529 31.5007C855.774 37.6236 854.509 44.8816 854.509 53.0909H864.509C864.509 45.8552 865.631 40.0876 867.648 35.6044L858.529 31.5007ZM854.509 53.0909C854.509 61.3018 855.774 68.5709 858.524 74.7202L867.653 70.6378C865.63 66.1147 864.509 60.3251 864.509 53.0909H854.509ZM858.54 74.7544C861.293 80.7884 865.204 85.6107 870.361 88.9552L875.802 80.5647C872.475 78.4073 869.724 75.1757 867.638 70.6035L858.54 74.7544ZM870.385 88.9701C875.511 92.254 881.355 93.8366 887.748 93.8366V83.8366C883.071 83.8366 879.138 82.7015 875.779 80.5498L870.385 88.9701ZM887.748 93.8366C894.141 93.8366 899.985 92.254 905.111 88.9701L899.717 80.5498C896.358 82.7015 892.425 83.8366 887.748 83.8366V93.8366ZM905.134 88.9552C910.299 85.6064 914.197 80.7754 916.917 74.7308L907.798 70.6272C905.745 75.1886 903.014 78.4116 899.694 80.5647L905.134 88.9552ZM916.911 74.7437C919.702 68.5874 920.987 61.3096 920.987 53.0909H910.987C910.987 60.3173 909.851 66.0982 907.803 70.6142L916.911 74.7437ZM951.968 104H946.968V109H951.968V104ZM951.968 2.18182V-2.81818H946.968V2.18182H951.968ZM1009.84 6.55682L1007.43 10.9379L1007.44 10.9442L1009.84 6.55682ZM1021.92 18.5881L1017.51 20.938L1017.51 20.9552L1017.52 20.9723L1021.92 18.5881ZM1021.92 53.2898L1026.31 55.674L1026.31 55.674L1021.92 53.2898ZM1009.74 65.2713L1012.1 69.6763L1012.11 69.6706L1012.12 69.6649L1009.74 65.2713ZM964.596 69.5966H959.596V74.5966H964.596V69.5966ZM964.596 54.4332V49.4332H959.596V54.4332H964.596ZM998.652 52.0469L1001.05 56.4364L1001.05 56.4364L998.652 52.0469ZM1005.11 45.4844L1000.66 43.206L1000.65 43.2271L1000.64 43.2483L1005.11 45.4844ZM1005.11 26.3438L1000.65 28.6013L1000.66 28.6226L1000.68 28.6438L1005.11 26.3438ZM998.602 19.9304L996.246 24.3408L996.276 24.3567L996.306 24.3722L998.602 19.9304ZM970.413 17.5938V12.5938H965.413V17.5938H970.413ZM970.413 104V109H975.413V104H970.413ZM956.968 104V2.18182H946.968V104H956.968ZM951.968 7.18182H990.15V-2.81818H951.968V7.18182ZM990.15 7.18182C997.369 7.18182 1003.05 8.52895 1007.43 10.9379L1012.25 2.17574C1006.02 -1.24865 998.575 -2.81818 990.15 -2.81818V7.18182ZM1007.44 10.9442C1011.97 13.4184 1015.27 16.7408 1017.51 20.938L1026.33 16.2381C1023.13 10.227 1018.38 5.52861 1012.24 2.16942L1007.44 10.9442ZM1017.52 20.9723C1019.83 25.2268 1021.05 30.157 1021.05 35.8892H1031.05C1031.05 28.6952 1029.51 22.0914 1026.31 16.2039L1017.52 20.9723ZM1021.05 35.8892C1021.05 41.6971 1019.83 46.6584 1017.52 50.9056L1026.31 55.674C1029.51 49.7791 1031.05 43.1401 1031.05 35.8892H1021.05ZM1017.52 50.9056C1015.26 55.0754 1011.92 58.3939 1007.35 60.8777L1012.12 69.6649C1018.29 66.3154 1023.07 61.6462 1026.31 55.674L1017.52 50.9056ZM1007.37 60.8663C1002.91 63.2626 997.163 64.5966 989.902 64.5966V74.5966C998.35 74.5966 1005.83 73.0471 1012.1 69.6763L1007.37 60.8663ZM989.902 64.5966H964.596V74.5966H989.902V64.5966ZM969.596 69.5966V54.4332H959.596V69.5966H969.596ZM964.596 59.4332H987.416V49.4332H964.596V59.4332ZM987.416 59.4332C992.526 59.4332 997.17 58.5504 1001.05 56.4364L996.257 47.6574C994.3 48.7252 991.453 49.4332 987.416 49.4332V59.4332ZM1001.05 56.4364C1004.8 54.3913 1007.71 51.4804 1009.59 47.7204L1000.64 43.2483C999.738 45.0565 998.342 46.5206 996.257 47.6574L1001.05 56.4364ZM1009.57 47.7627C1011.4 44.1714 1012.25 40.1709 1012.25 35.8892H1002.25C1002.25 38.8329 1001.68 41.2292 1000.66 43.206L1009.57 47.7627ZM1012.25 35.8892C1012.25 31.6091 1011.4 27.6149 1009.55 24.0437L1000.68 28.6438C1001.68 30.5745 1002.25 32.9439 1002.25 35.8892H1012.25ZM1009.58 24.0862C1007.67 20.3242 1004.7 17.4564 1000.9 15.4886L996.306 24.3722C998.399 25.4536 999.773 26.8614 1000.65 28.6013L1009.58 24.0862ZM1000.96 15.52C997.087 13.453 992.439 12.5938 987.316 12.5938V22.5938C991.407 22.5938 994.283 23.2923 996.246 24.3408L1000.96 15.52ZM987.316 12.5938H970.413V22.5938H987.316V12.5938ZM965.413 17.5938V104H975.413V17.5938H965.413ZM970.413 99H951.968V109H970.413V99ZM1042.07 104H1037.07V109H1042.07V104ZM1042.07 2.18182V-2.81818H1037.07V2.18182H1042.07ZM1108.29 2.18182H1113.29V-2.81818H1108.29V2.18182ZM1108.29 17.6435V22.6435H1113.29V17.6435H1108.29ZM1060.51 17.6435V12.6435H1055.51V17.6435H1060.51ZM1060.51 45.2855H1055.51V50.2855H1060.51V45.2855ZM1104.86 45.2855H1109.86V40.2855H1104.86V45.2855ZM1104.86 60.7472V65.7472H1109.86V60.7472H1104.86ZM1060.51 60.7472V55.7472H1055.51V60.7472H1060.51ZM1060.51 88.5384H1055.51V93.5384H1060.51V88.5384ZM1108.69 88.5384H1113.69V83.5384H1108.69V88.5384ZM1108.69 104V109H1113.69V104H1108.69ZM1047.07 104V2.18182H1037.07V104H1047.07ZM1042.07 7.18182H1108.29V-2.81818H1042.07V7.18182ZM1103.29 2.18182V17.6435H1113.29V2.18182H1103.29ZM1108.29 12.6435H1060.51V22.6435H1108.29V12.6435ZM1055.51 17.6435V45.2855H1065.51V17.6435H1055.51ZM1060.51 50.2855H1104.86V40.2855H1060.51V50.2855ZM1099.86 45.2855V60.7472H1109.86V45.2855H1099.86ZM1104.86 55.7472H1060.51V65.7472H1104.86V55.7472ZM1055.51 60.7472V88.5384H1065.51V60.7472H1055.51ZM1060.51 93.5384H1108.69V83.5384H1060.51V93.5384ZM1103.69 88.5384V104H1113.69V88.5384H1103.69ZM1108.69 99H1042.07V109H1108.69V99ZM1127.11 104H1122.11V109H1127.11V104ZM1127.11 2.18182V-2.81818H1122.11V2.18182H1127.11ZM1184.97 6.25852L1182.69 10.7082L1182.71 10.7139L1184.97 6.25852ZM1197.06 17.6932L1192.68 20.1164L1192.69 20.134L1192.7 20.1515L1197.06 17.6932ZM1197.01 51.7486L1192.68 49.2422L1192.67 49.2517L1197.01 51.7486ZM1184.83 62.8352L1186.99 67.3402L1187.01 67.3348L1187.02 67.3293L1184.83 62.8352ZM1137.84 66.7131H1132.84V71.7131H1137.84V66.7131ZM1137.84 51.4006V46.4006H1132.84V51.4006H1137.84ZM1173.79 49.5114L1175.77 54.1017L1175.79 54.0922L1175.81 54.0826L1173.79 49.5114ZM1180.25 43.8935L1175.91 41.4065L1175.91 41.416L1175.9 41.4254L1180.25 43.8935ZM1180.25 25.4986L1175.87 27.9125L1175.88 27.9245L1175.89 27.9364L1180.25 25.4986ZM1173.74 19.6321L1171.63 24.1643L1171.65 24.1742L1171.67 24.1839L1173.74 19.6321ZM1145.55 17.5938V12.5938H1140.55V17.5938H1145.55ZM1145.55 104V109H1150.55V104H1145.55ZM1179.7 57.8636L1184.09 55.4664L1182.67 52.8636H1179.7V57.8636ZM1204.91 104V109H1213.34L1209.3 101.603L1204.91 104ZM1184.33 104L1179.92 106.364L1181.34 109H1184.33V104ZM1159.57 57.8636V52.8636H1151.21L1155.16 60.2279L1159.57 57.8636ZM1132.11 104V2.18182H1122.11V104H1132.11ZM1127.11 7.18182H1165.29V-2.81818H1127.11V7.18182ZM1165.29 7.18182C1172.55 7.18182 1178.28 8.44718 1182.69 10.7082L1187.25 1.80885C1181.06 -1.36575 1173.66 -2.81818 1165.29 -2.81818V7.18182ZM1182.71 10.7139C1187.22 13.0116 1190.48 16.1433 1192.68 20.1164L1201.43 15.27C1198.19 9.43242 1193.4 4.94109 1187.24 1.80311L1182.71 10.7139ZM1192.7 20.1515C1194.97 24.1604 1196.18 28.9709 1196.18 34.7457H1206.18C1206.18 27.5281 1204.65 20.9703 1201.41 15.2348L1192.7 20.1515ZM1196.18 34.7457C1196.18 40.5507 1194.95 45.3223 1192.68 49.2422L1201.33 54.2549C1204.63 48.5632 1206.18 41.9995 1206.18 34.7457H1196.18ZM1192.67 49.2517C1190.46 53.0867 1187.19 56.1214 1182.63 58.3411L1187.02 67.3293C1193.2 64.3123 1198.05 59.9559 1201.34 54.2455L1192.67 49.2517ZM1182.66 58.3302C1178.14 60.5044 1172.33 61.7131 1165.04 61.7131V71.7131C1173.39 71.7131 1180.77 70.3365 1186.99 67.3402L1182.66 58.3302ZM1165.04 61.7131H1137.84V71.7131H1165.04V61.7131ZM1142.84 66.7131V51.4006H1132.84V66.7131H1142.84ZM1137.84 56.4006H1162.55V46.4006H1137.84V56.4006ZM1162.55 56.4006C1167.53 56.4006 1172.02 55.7228 1175.77 54.1017L1171.81 44.921C1169.73 45.8188 1166.72 46.4006 1162.55 46.4006V56.4006ZM1175.81 54.0826C1179.58 52.4154 1182.61 49.8661 1184.6 46.3615L1175.9 41.4254C1175.11 42.8261 1173.83 44.0221 1171.76 44.9402L1175.81 54.0826ZM1184.59 46.3804C1186.55 42.9644 1187.39 39.0069 1187.39 34.7457H1177.39C1177.39 37.7099 1176.81 39.8509 1175.91 41.4065L1184.59 46.3804ZM1187.39 34.7457C1187.39 30.4787 1186.55 26.5144 1184.62 23.0607L1175.89 27.9364C1176.81 29.5869 1177.39 31.7874 1177.39 34.7457H1187.39ZM1184.63 23.0847C1182.64 19.4751 1179.62 16.8112 1175.81 15.0803L1171.67 24.1839C1173.69 25.1045 1175.01 26.3516 1175.87 27.9125L1184.63 23.0847ZM1175.85 15.0999C1172.05 13.3296 1167.5 12.5938 1162.45 12.5938V22.5938C1166.62 22.5938 1169.59 23.2168 1171.63 24.1643L1175.85 15.0999ZM1162.45 12.5938H1145.55V22.5938H1162.45V12.5938ZM1140.55 17.5938V104H1150.55V17.5938H1140.55ZM1145.55 99H1127.11V109H1145.55V99ZM1175.32 60.2609L1200.52 106.397L1209.3 101.603L1184.09 55.4664L1175.32 60.2609ZM1204.91 99H1184.33V109H1204.91V99ZM1188.73 101.636L1163.98 55.4994L1155.16 60.2279L1179.92 106.364L1188.73 101.636ZM1159.57 62.8636H1179.7V52.8636H1159.57V62.8636Z" fill="black" mask="url(#path-1-outside-1_2_18)"/>
</g>
</svg>
