<svg width="1220" height="116" viewBox="0 0 1220 116" fill="none" xmlns="http://www.w3.org/2000/svg">
<g id="WEB DEVELOPER (Stroke)">
<path id="Stroke" fill-rule="evenodd" clip-rule="evenodd" d="M1128.11 114V2.18182H1171.29C1179.66 2.18182 1187.05 3.63297 1193.25 6.8046C1199.4 9.93932 1204.19 14.4242 1207.42 20.2522C1210.65 25.9835 1212.18 32.5354 1212.18 39.7457C1212.18 46.9952 1210.63 53.556 1207.34 59.2455C1204.55 64.0812 1200.65 67.9459 1195.76 70.8486L1219.34 114H1187.34L1167.33 76.7131H1156.55V114H1128.11ZM1151.55 71.7131H1170.32L1190.33 109H1210.91L1188.89 68.6905C1189.55 68.4231 1190.2 68.1381 1190.83 67.8352C1191.71 67.4051 1192.55 66.9458 1193.37 66.4575C1197.49 63.9735 1200.71 60.7372 1203.01 56.7486C1205.79 51.9427 1207.18 46.2751 1207.18 39.7457C1207.18 33.2495 1205.81 27.5653 1203.06 22.6932C1200.34 17.7879 1196.31 13.9763 1190.97 11.2585C1185.67 8.54073 1179.11 7.18182 1171.29 7.18182H1133.11V109H1151.55V71.7131ZM1151.55 56.4006H1168.55C1173.13 56.4006 1176.87 55.7708 1179.79 54.5114C1182.71 53.2188 1184.86 51.3461 1186.25 48.8935C1187.68 46.4077 1188.39 43.3584 1188.39 39.7457C1188.39 36.1331 1187.68 33.0507 1186.25 30.4986C1184.83 27.9134 1182.66 25.9579 1179.74 24.6321C1176.82 23.2732 1173.06 22.5938 1168.45 22.5938H1151.55V56.4006ZM1156.55 51.4006H1168.55C1172.71 51.4006 1175.71 50.823 1177.78 49.9306C1179.84 49.0138 1181.11 47.8212 1181.9 46.4254L1181.91 46.416L1181.91 46.4065C1182.81 44.8509 1183.39 42.71 1183.39 39.7457C1183.39 36.7874 1182.81 34.587 1181.89 32.9364L1181.88 32.9245L1181.87 32.9125C1181.01 31.3517 1179.69 30.1045 1177.67 29.1839L1177.65 29.1742L1177.63 29.1643C1175.59 28.2168 1172.62 27.5938 1168.45 27.5938H1156.55V51.4006Z" fill="black"/>
<path id="Stroke_2" fill-rule="evenodd" clip-rule="evenodd" d="M1043.07 114V2.18182H1119.29V27.6435H1071.51V45.2855H1115.86V70.7472H1071.51V88.5384H1119.69V114H1043.07ZM1066.51 93.5384V65.7472H1110.86V50.2855H1066.51V22.6435H1114.29V7.18182H1048.07V109H1114.69V93.5384H1066.51Z" fill="black"/>
<path id="Stroke_3" fill-rule="evenodd" clip-rule="evenodd" d="M952.968 114V2.18182H996.15C1004.57 2.18182 1012.02 3.75082 1018.24 7.17399C1024.38 10.5305 1029.13 15.2231 1032.33 21.2254C1035.51 27.1075 1037.05 33.7039 1037.05 40.8892C1037.05 48.1401 1035.51 54.7791 1032.31 60.674C1029.07 66.6462 1024.29 71.3154 1018.12 74.6649L1018.11 74.6706L1018.1 74.6763C1011.83 78.0471 1004.35 79.5966 995.902 79.5966H981.413V114H952.968ZM976.413 74.5966H995.902C1003.76 74.5966 1010.37 73.1548 1015.74 70.2713C1021.11 67.3547 1025.17 63.3608 1027.92 58.2898C1030.67 53.2188 1032.05 47.4186 1032.05 40.8892C1032.05 34.4261 1030.67 28.6591 1027.92 23.5881C1025.2 18.4839 1021.17 14.4735 1015.84 11.5568C1010.53 8.64016 1003.97 7.18182 996.15 7.18182H957.968V109H976.413V74.5966ZM976.413 59.4332H993.416C997.99 59.4332 1001.73 58.6378 1004.65 57.0469C1007.57 55.456 1009.72 53.2685 1011.11 50.4844C1012.54 47.7003 1013.25 44.5019 1013.25 40.8892C1013.25 37.2765 1012.54 34.0947 1011.11 31.3438C1009.72 28.5928 1007.55 26.455 1004.6 24.9304C1001.69 23.3726 997.923 22.5938 993.316 22.5938H976.413V59.4332ZM981.413 54.4332H993.416C997.453 54.4332 1000.3 53.7252 1002.26 52.6574C1004.34 51.5206 1005.74 50.0565 1006.64 48.2483L1006.65 48.2271L1006.66 48.206C1007.68 46.2292 1008.25 43.8329 1008.25 40.8892C1008.25 37.9439 1007.68 35.5745 1006.68 33.6438L1006.66 33.6226L1006.65 33.6013C1005.77 31.8614 1004.4 30.4536 1002.31 29.3722L1002.28 29.3567L1002.25 29.3408C1000.28 28.2923 997.407 27.5938 993.316 27.5938H981.413V54.4332Z" fill="black"/>
<path id="Stroke_4" fill-rule="evenodd" clip-rule="evenodd" d="M867.242 108.483L867.23 108.476C859.351 103.793 853.163 97.1012 848.658 88.5635L848.652 88.5523L848.646 88.541C844.119 79.8544 841.965 69.6433 841.965 58.0909C841.965 46.509 844.118 36.2932 848.65 27.6331L848.654 27.6261C853.159 19.0522 859.351 12.3516 867.245 7.69719L867.254 7.69197C875.149 3.05896 884.024 0.789764 893.748 0.789764C903.469 0.789764 912.331 3.05806 920.196 7.69458C928.123 12.3473 934.319 19.0483 938.793 27.6277C943.361 36.2893 945.531 46.5074 945.531 58.0909C945.531 69.6794 943.359 79.9134 938.792 88.6055C934.316 97.1543 928.119 103.836 920.197 108.487C912.332 113.124 903.47 115.392 893.748 115.392C884.024 115.392 875.149 113.123 867.254 108.49L867.242 108.483ZM934.366 29.9517C930.289 22.1297 924.721 16.1473 917.661 12.0043C910.635 7.86126 902.664 5.78977 893.748 5.78977C884.832 5.78977 876.844 7.86126 869.785 12.0043C862.758 16.1473 857.19 22.1297 853.08 29.9517C849.004 37.7405 846.965 47.1203 846.965 58.0909C846.965 69.0284 849.004 78.4081 853.08 86.2301C857.19 94.0189 862.758 100.001 869.785 104.178C876.844 108.321 884.832 110.392 893.748 110.392C902.664 110.392 910.635 108.321 917.661 104.178C924.721 100.035 930.289 94.0686 934.366 86.2798C938.476 78.4579 940.531 69.0616 940.531 58.0909C940.531 47.1203 938.476 37.7405 934.366 29.9517ZM913.801 40.6109L913.793 40.5938C911.739 36.0012 909.014 32.7939 905.717 30.6818L905.705 30.6743L905.694 30.6668C902.338 28.4906 898.413 27.3452 893.748 27.3452C889.083 27.3452 885.158 28.4906 881.802 30.6668L881.79 30.6743L881.779 30.6818C878.478 32.7965 875.734 36.0086 873.648 40.6054C871.631 45.0885 870.509 50.8557 870.509 58.0909C870.509 65.3147 871.627 71.0981 873.644 75.6183C875.727 80.177 878.472 83.4018 881.79 85.5569C885.146 87.704 889.076 88.8367 893.748 88.8367C898.419 88.8367 902.349 87.704 905.706 85.5569C909.021 83.4038 911.747 80.1831 913.798 75.6272L913.801 75.6207L913.803 75.6142C915.851 71.0982 916.987 65.3173 916.987 58.0909C916.987 50.8629 915.851 45.1042 913.808 40.628L913.801 40.6109ZM908.414 89.7599C904.172 92.4778 899.283 93.8367 893.748 93.8367C888.213 93.8367 883.324 92.4778 879.082 89.7599C874.839 87.009 871.508 82.982 869.089 77.679C866.702 72.3428 865.509 65.8134 865.509 58.0909C865.509 50.3684 866.702 43.8556 869.089 38.5525C871.508 33.2164 874.839 29.1894 879.082 26.4716C883.324 23.7206 888.213 22.3452 893.748 22.3452C899.283 22.3452 904.172 23.7206 908.414 26.4716C912.656 29.1894 915.971 33.2164 918.357 38.5525C920.777 43.8556 921.987 50.3684 921.987 58.0909C921.987 65.8134 920.777 72.3428 918.357 77.679C915.971 82.982 912.656 87.009 908.414 89.7599Z" fill="black"/>
<path id="Stroke_5" fill-rule="evenodd" clip-rule="evenodd" d="M769.218 114V2.18182H797.663V88.5384H842.507V114H769.218ZM792.663 93.5384V7.18182H774.218V109H837.507V93.5384H792.663Z" fill="black"/>
<path id="Stroke_6" fill-rule="evenodd" clip-rule="evenodd" d="M684.179 114V2.18182H760.401V27.6435H712.624V45.2855H756.971V70.7472H712.624V88.5384H760.799V114H684.179ZM707.624 93.5384V65.7472H751.971V50.2855H707.624V22.6435H755.401V7.18182H689.179V109H755.799V93.5384H707.624Z" fill="black"/>
<path id="Stroke_7" fill-rule="evenodd" clip-rule="evenodd" d="M605.106 2.18182L628.51 72.9635L651.869 2.18182H682.833L643.412 114H613.563L574.197 2.18182H605.106ZM629.036 87.3239H627.991L601.493 7.18182H581.259L617.104 109H639.874L675.768 7.18182H655.484L629.036 87.3239Z" fill="black"/>
<path id="Stroke_8" fill-rule="evenodd" clip-rule="evenodd" d="M497.832 114V2.18182H574.053V27.6435H526.276V45.2855H570.623V70.7472H526.276V88.5384H574.451V114H497.832ZM521.276 93.5384V65.7472H565.623V50.2855H521.276V22.6435H569.053V7.18182H502.832V109H569.451V93.5384H521.276Z" fill="black"/>
<path id="Stroke_9" fill-rule="evenodd" clip-rule="evenodd" d="M396.386 114V2.18182H436.585C447.364 2.18182 456.925 4.35735 465.073 8.93067C473.245 13.4654 479.535 20.0149 483.885 28.4569C488.238 36.9041 490.307 46.8083 490.307 57.9915C490.307 69.208 488.221 79.1448 483.836 87.6242C479.479 96.1143 473.128 102.698 464.855 107.261C456.605 111.831 446.883 114 435.889 114H396.386ZM462.438 102.885C469.829 98.8083 475.48 92.9583 479.391 85.3352C483.335 77.7121 485.307 68.5975 485.307 57.9915C485.307 47.4186 483.351 38.3371 479.44 30.7472C475.529 23.1572 469.928 17.3404 462.636 13.2969C455.378 9.22018 446.694 7.18182 436.585 7.18182H401.386V109H435.889C446.23 109 455.08 106.962 462.438 102.885ZM458.897 40.7087L458.892 40.6976C456.922 36.4298 454.11 33.4077 450.446 31.4068L450.427 31.3966L450.409 31.3863C446.702 29.3212 441.83 28.1406 435.541 28.1406H424.831V88.0412H434.994C441.497 88.0412 446.527 86.855 450.336 84.7809C454.086 82.706 456.927 79.6398 458.89 75.3896C460.887 71.0317 462.011 65.3023 462.011 57.9915C462.011 50.6735 460.885 44.9873 458.897 40.7087ZM452.743 89.1634C448.003 91.7486 442.087 93.0412 434.994 93.0412H419.831V23.1406H435.541C442.435 23.1406 448.202 24.4333 452.842 27.0185C457.516 29.5706 461.045 33.4318 463.432 38.6023C465.818 43.7396 467.011 50.2027 467.011 57.9915C467.011 65.7803 465.818 72.2765 463.432 77.4801C461.045 82.6506 457.482 86.545 452.743 89.1634Z" fill="black"/>
<path id="Stroke_10" fill-rule="evenodd" clip-rule="evenodd" d="M234.922 114V2.18182H278.899C286.737 2.18182 293.638 3.41115 299.377 6.1395C305.014 8.77156 309.488 12.5087 312.496 17.4483C315.467 22.2726 316.91 27.6973 316.91 33.581C316.91 38.3596 315.991 42.7617 313.925 46.5936L313.919 46.604L313.913 46.6144C312.082 49.9723 309.631 52.7863 306.582 55.0008C306.749 55.0985 306.916 55.198 307.082 55.2993C311.209 57.7573 314.52 61.2104 317.027 65.5196C319.683 70.084 320.887 75.4032 320.887 81.2585C320.887 87.3754 319.394 93.0232 316.335 98.0695L316.33 98.077L316.326 98.0845C313.187 103.221 308.532 107.127 302.656 109.894C296.652 112.722 289.403 114 281.136 114H234.922ZM304.502 59.5824C303.497 58.9688 302.477 58.4392 301.444 57.9935C299.148 57.0035 296.785 56.4277 294.354 56.2661C294.273 56.2608 294.193 56.2559 294.112 56.2514V55.2571C294.13 55.2527 294.149 55.2482 294.167 55.2437C296.675 54.6368 299.003 53.735 301.15 52.5384C301.821 52.1643 302.475 51.7613 303.11 51.3296C305.795 49.5066 307.933 47.1368 309.524 44.2202C311.115 41.2704 311.91 37.724 311.91 33.581C311.91 28.5431 310.684 24.0355 308.231 20.0582C305.812 16.081 302.149 12.9489 297.244 10.6619C292.372 8.34186 286.257 7.18182 278.899 7.18182H239.922V109H281.136C288.925 109 295.388 107.79 300.525 105.371C305.663 102.951 309.507 99.6534 312.059 95.4773C314.611 91.268 315.887 86.5284 315.887 81.2585C315.887 76.0881 314.827 71.6799 312.706 68.0341C310.584 64.3883 307.85 61.571 304.502 59.5824ZM294.907 71.6634C296.399 74.0829 297.145 76.8007 297.145 79.8168C297.145 83.8603 295.653 87.1747 292.67 89.76C289.72 92.312 284.898 93.5881 278.203 93.5881H258.366V63.7585H278.7C282.511 63.7585 285.793 64.4711 288.544 65.8963C291.295 67.2884 293.416 69.2107 294.907 71.6634ZM263.366 68.7585V88.5881H278.203C284.479 88.5881 287.81 87.3511 289.395 85.9815C291.252 84.3722 292.145 82.4508 292.145 79.8168C292.145 77.6681 291.626 75.869 290.651 74.2871L290.643 74.2742L290.635 74.2613C289.664 72.6648 288.269 71.3611 286.286 70.3576L286.265 70.3469L286.244 70.3359C284.349 69.3542 281.892 68.7585 278.7 68.7585H263.366ZM287.097 40.9063C287.953 39.6518 288.466 38.0774 288.466 35.9673C288.466 33.3546 287.611 31.4674 285.911 29.9088L285.9 29.8987L285.889 29.8885C284.405 28.5116 281.744 27.3949 277.01 27.3949H263.366V45.4844H276.612C279.165 45.4844 281.304 45.0239 283.119 44.2037C284.911 43.3615 286.181 42.2593 287.088 40.9202L287.097 40.9063ZM285.213 48.7443C282.661 49.9044 279.794 50.4844 276.612 50.4844H258.366V22.3949H277.01C282.445 22.3949 286.538 23.6709 289.289 26.223C292.074 28.7751 293.466 32.0232 293.466 35.9673C293.466 38.9503 292.72 41.5355 291.228 43.723C289.77 45.8774 287.765 47.5511 285.213 48.7443Z" fill="black"/>
<path id="Stroke_11" fill-rule="evenodd" clip-rule="evenodd" d="M149.882 114V2.18182H226.104V27.6435H178.327V45.2855H222.674V70.7472H178.327V88.5384H226.502V114H149.882ZM173.327 93.5384V65.7472H217.674V50.2855H173.327V22.6435H221.104V7.18182H154.882V109H221.502V93.5384H173.327Z" fill="black"/>
<path id="Stroke_12" fill-rule="evenodd" clip-rule="evenodd" d="M31.5688 114L0.0107422 2.18182H30.376L45.4146 63.5182L61.4721 2.18182H87.2363L103.314 63.481L118.334 2.18182H148.699L117.141 114H91.3883L74.3746 54.3692L57.3194 114H31.5688ZM73.9822 37.5582H74.7777L95.1612 109H113.357L142.093 7.18182H122.256L103.911 82.054H103.016L83.3786 7.18182H65.3317L45.7436 82.0043H44.799L26.4538 7.18182H6.61719L35.353 109H53.549L73.9822 37.5582Z" fill="black"/>
</g>
</svg>
